<?xml version="1.0" encoding="utf-8"?>
<!-- Svg Vector Icons : http://www.onlinewebfonts.com/icon -->
<!DOCTYPE svg PUBLIC "-//W3C//DTD SVG 1.1//EN" "http://www.w3.org/Graphics/SVG/1.1/DTD/svg11.dtd">
<svg version="1.1" xmlns="http://www.w3.org/2000/svg" xmlns:xlink="http://www.w3.org/1999/xlink" x="0px" y="0px" viewBox="0 0 1000 1000" enable-background="new 0 0 1000 1000" xml:space="preserve">
<metadata> Svg Vector Icons : http://www.onlinewebfonts.com/icon </metadata>
<g><path d="M500,22.1c-270.6,0-490,219.4-490,490c0,216.5,140.4,400.2,335.1,464.9c24.5,4.5,33.5-10.6,33.5-23.6c0-11.7-0.5-50.3-0.7-91.2c-136.3,29.6-165.1-57.8-165.1-57.8c-22.3-56.6-54.4-71.7-54.4-71.7c-44.5-30.4,3.4-29.8,3.4-29.8c49.2,3.5,75.1,50.5,75.1,50.5c43.7,74.9,114.6,53.3,142.6,40.7c4.4-31.7,17.1-53.3,31.1-65.5c-108.8-12.4-223.3-54.4-223.3-242.2c0-53.5,19.1-97.2,50.5-131.5c-5.1-12.3-21.9-62.2,4.7-129.7c0,0,41.2-13.2,134.8,50.2c39.1-10.9,81-16.3,122.7-16.5c41.6,0.2,83.6,5.6,122.7,16.5c93.5-63.4,134.6-50.2,134.6-50.2c26.7,67.5,9.9,117.3,4.8,129.7c31.4,34.3,50.4,78,50.4,131.5c0,188.2-114.6,229.6-223.7,241.8c17.6,15.2,33.2,45,33.2,90.7c0,65.6-0.6,118.3-0.6,134.5c0,13,8.8,28.3,33.7,23.5C849.8,912.1,990,728.5,990,512.1C990,241.5,770.6,22.1,500,22.1L500,22.1z"/></g>
</svg>