<?xml version="1.0" encoding="utf-8"?>
<!-- Svg Vector Icons : http://www.onlinewebfonts.com/icon -->
<!DOCTYPE svg PUBLIC "-//W3C//DTD SVG 1.1//EN" "http://www.w3.org/Graphics/SVG/1.1/DTD/svg11.dtd">
<svg version="1.1" xmlns="http://www.w3.org/2000/svg" xmlns:xlink="http://www.w3.org/1999/xlink" x="0px" y="0px" viewBox="0 0 1000 1000" enable-background="new 0 0 1000 1000" xml:space="preserve">
<metadata> Svg Vector Icons : http://www.onlinewebfonts.com/icon </metadata>
<g><path d="M871.1,10H128.9C63.2,10,10,63.2,10,128.9v742.1C10,936.8,63.2,990,128.9,990h742.1c65.7,0,118.9-53.2,118.9-118.9V128.9C990,63.2,936.8,10,871.1,10z M321.7,825.9H187.2V391.4h134.5V825.9z M253.8,334.5c-43.9,0-79.5-35.9-79.5-80.2c0-44.3,35.6-80.2,79.5-80.2c43.9,0,79.5,35.9,79.5,80.2C333.4,298.6,297.8,334.5,253.8,334.5z M825.7,825.9H691.8c0,0,0-165.5,0-228.1c0-62.6-23.8-97.5-73.2-97.5c-53.8,0-82,36.4-82,97.5c0,66.9,0,228.1,0,228.1h-129V391.4h129v58.5c0,0,38.8-71.8,130.9-71.8c92.1,0,158.1,56.3,158.1,172.6C825.7,667.1,825.7,825.9,825.7,825.9z"/></g>
</svg>